<mxfile host="app.diagrams.net" modified="2023-05-26T05:27:38.290Z" agent="Mozilla/5.0 (Windows NT 10.0; Win64; x64) AppleWebKit/537.36 (KHTML, like Gecko) Chrome/113.0.0.0 Safari/537.36" etag="Hseuj5rjM7_Tf0j6WGfT" version="21.3.2" type="github">
  <diagram name="페이지-1" id="7yA3M5oHXoed5DA-7h5f">
    <mxGraphModel dx="1434" dy="764" grid="1" gridSize="10" guides="1" tooltips="1" connect="1" arrows="1" fold="1" page="1" pageScale="1" pageWidth="827" pageHeight="1169" math="0" shadow="0">
      <root>
        <mxCell id="0" />
        <mxCell id="1" parent="0" />
        <mxCell id="_hMRSCN7YaHlp1FsNygt-1" value="이용자&lt;br&gt;" style="shape=umlActor;verticalLabelPosition=bottom;verticalAlign=top;html=1;outlineConnect=0;" vertex="1" parent="1">
          <mxGeometry x="40" y="240" width="30" height="60" as="geometry" />
        </mxCell>
        <mxCell id="_hMRSCN7YaHlp1FsNygt-2" value="회원관리(회원서비스)" style="shape=umlFrame;whiteSpace=wrap;html=1;pointerEvents=0;width=280;height=30;" vertex="1" parent="1">
          <mxGeometry x="120" y="50" width="650" height="710" as="geometry" />
        </mxCell>
        <mxCell id="_hMRSCN7YaHlp1FsNygt-3" value="회원등록" style="ellipse;whiteSpace=wrap;html=1;fillColor=#fff2cc;strokeColor=#d6b656;" vertex="1" parent="1">
          <mxGeometry x="220" y="150" width="140" height="60" as="geometry" />
        </mxCell>
        <mxCell id="_hMRSCN7YaHlp1FsNygt-4" value="회원정보수정" style="ellipse;whiteSpace=wrap;html=1;fillColor=#fff2cc;strokeColor=#d6b656;" vertex="1" parent="1">
          <mxGeometry x="220" y="240" width="140" height="60" as="geometry" />
        </mxCell>
        <mxCell id="_hMRSCN7YaHlp1FsNygt-5" value="회원탈퇴" style="ellipse;whiteSpace=wrap;html=1;fillColor=#fff2cc;strokeColor=#d6b656;" vertex="1" parent="1">
          <mxGeometry x="220" y="330" width="140" height="60" as="geometry" />
        </mxCell>
        <mxCell id="_hMRSCN7YaHlp1FsNygt-6" value="회원정보조회" style="ellipse;whiteSpace=wrap;html=1;fillColor=#fff2cc;strokeColor=#d6b656;" vertex="1" parent="1">
          <mxGeometry x="220" y="420" width="140" height="60" as="geometry" />
        </mxCell>
        <mxCell id="_hMRSCN7YaHlp1FsNygt-7" value="전체회원조회" style="ellipse;whiteSpace=wrap;html=1;fillColor=#fff2cc;strokeColor=#d6b656;" vertex="1" parent="1">
          <mxGeometry x="220" y="520" width="140" height="60" as="geometry" />
        </mxCell>
        <mxCell id="_hMRSCN7YaHlp1FsNygt-8" value="" style="endArrow=none;html=1;rounded=0;entryX=0;entryY=0.5;entryDx=0;entryDy=0;" edge="1" parent="1" target="_hMRSCN7YaHlp1FsNygt-4">
          <mxGeometry width="50" height="50" relative="1" as="geometry">
            <mxPoint x="80" y="270" as="sourcePoint" />
            <mxPoint x="440" y="370" as="targetPoint" />
          </mxGeometry>
        </mxCell>
        <mxCell id="_hMRSCN7YaHlp1FsNygt-9" value="" style="endArrow=none;html=1;rounded=0;entryX=0;entryY=0.5;entryDx=0;entryDy=0;" edge="1" parent="1" target="_hMRSCN7YaHlp1FsNygt-3">
          <mxGeometry width="50" height="50" relative="1" as="geometry">
            <mxPoint x="80" y="270" as="sourcePoint" />
            <mxPoint x="190" y="220" as="targetPoint" />
          </mxGeometry>
        </mxCell>
        <mxCell id="_hMRSCN7YaHlp1FsNygt-10" value="" style="endArrow=none;html=1;rounded=0;entryX=0;entryY=0.5;entryDx=0;entryDy=0;" edge="1" parent="1" target="_hMRSCN7YaHlp1FsNygt-5">
          <mxGeometry width="50" height="50" relative="1" as="geometry">
            <mxPoint x="80" y="270" as="sourcePoint" />
            <mxPoint x="190" y="130" as="targetPoint" />
          </mxGeometry>
        </mxCell>
        <mxCell id="_hMRSCN7YaHlp1FsNygt-11" value="" style="endArrow=none;html=1;rounded=0;entryX=0;entryY=0.5;entryDx=0;entryDy=0;" edge="1" parent="1" target="_hMRSCN7YaHlp1FsNygt-6">
          <mxGeometry width="50" height="50" relative="1" as="geometry">
            <mxPoint x="80" y="270" as="sourcePoint" />
            <mxPoint x="190" y="310" as="targetPoint" />
          </mxGeometry>
        </mxCell>
        <mxCell id="_hMRSCN7YaHlp1FsNygt-12" value="" style="endArrow=none;html=1;rounded=0;entryX=0;entryY=0.5;entryDx=0;entryDy=0;" edge="1" parent="1" target="_hMRSCN7YaHlp1FsNygt-7">
          <mxGeometry width="50" height="50" relative="1" as="geometry">
            <mxPoint x="80" y="485" as="sourcePoint" />
            <mxPoint x="190" y="400" as="targetPoint" />
          </mxGeometry>
        </mxCell>
        <mxCell id="_hMRSCN7YaHlp1FsNygt-15" value="관리자" style="shape=umlActor;verticalLabelPosition=bottom;verticalAlign=top;html=1;outlineConnect=0;" vertex="1" parent="1">
          <mxGeometry x="40" y="455" width="30" height="60" as="geometry" />
        </mxCell>
        <mxCell id="_hMRSCN7YaHlp1FsNygt-16" value="로그인" style="ellipse;whiteSpace=wrap;html=1;fillColor=#fff2cc;strokeColor=#d6b656;" vertex="1" parent="1">
          <mxGeometry x="550" y="240" width="140" height="60" as="geometry" />
        </mxCell>
        <mxCell id="_hMRSCN7YaHlp1FsNygt-17" value="&amp;nbsp; &amp;lt;&amp;lt;include&amp;gt;&amp;gt;&amp;nbsp;&amp;nbsp;" style="endArrow=classic;endSize=12;dashed=1;html=1;rounded=0;endFill=1;" edge="1" parent="1">
          <mxGeometry width="160" relative="1" as="geometry">
            <mxPoint x="360" y="269.5" as="sourcePoint" />
            <mxPoint x="550" y="270" as="targetPoint" />
          </mxGeometry>
        </mxCell>
        <mxCell id="_hMRSCN7YaHlp1FsNygt-18" value="나의 등급 확인" style="ellipse;whiteSpace=wrap;html=1;fillColor=#fff2cc;strokeColor=#d6b656;" vertex="1" parent="1">
          <mxGeometry x="500" y="340" width="140" height="60" as="geometry" />
        </mxCell>
        <mxCell id="_hMRSCN7YaHlp1FsNygt-19" value="포인트점수확인" style="ellipse;whiteSpace=wrap;html=1;fillColor=#fff2cc;strokeColor=#d6b656;" vertex="1" parent="1">
          <mxGeometry x="500" y="420" width="140" height="60" as="geometry" />
        </mxCell>
        <mxCell id="_hMRSCN7YaHlp1FsNygt-20" value="&amp;nbsp; &amp;lt;&amp;lt;extends&amp;gt;&amp;gt;&amp;nbsp;&amp;nbsp;" style="endArrow=classic;endSize=12;dashed=1;html=1;rounded=0;exitX=0;exitY=0.5;exitDx=0;exitDy=0;endFill=1;" edge="1" parent="1" source="_hMRSCN7YaHlp1FsNygt-18" target="_hMRSCN7YaHlp1FsNygt-5">
          <mxGeometry width="160" relative="1" as="geometry">
            <mxPoint x="330" y="390" as="sourcePoint" />
            <mxPoint x="490" y="390" as="targetPoint" />
          </mxGeometry>
        </mxCell>
        <mxCell id="_hMRSCN7YaHlp1FsNygt-24" value="&amp;nbsp; &amp;lt;&amp;lt;extends&amp;gt;&amp;gt;&amp;nbsp;&amp;nbsp;" style="endArrow=classic;endSize=12;dashed=1;html=1;rounded=0;exitX=0;exitY=0.5;exitDx=0;exitDy=0;endFill=1;entryX=1;entryY=0.5;entryDx=0;entryDy=0;" edge="1" parent="1" source="_hMRSCN7YaHlp1FsNygt-19" target="_hMRSCN7YaHlp1FsNygt-6">
          <mxGeometry width="160" relative="1" as="geometry">
            <mxPoint x="500" y="390" as="sourcePoint" />
            <mxPoint x="368" y="377" as="targetPoint" />
          </mxGeometry>
        </mxCell>
      </root>
    </mxGraphModel>
  </diagram>
</mxfile>
